<svg xmlns="http://www.w3.org/2000/svg" width="12.308" height="12.308" viewBox="0 0 12.308 12.308">
  <path id="path" d="M13.518,13.636a1.735,1.735,0,0,1-3.282,0H3.086a.586.586,0,1,1,0-1.172h7.15a1.735,1.735,0,0,1,3.282,0h.7a.586.586,0,0,1,0,1.172Zm-2.227-.586a.586.586,0,1,0,.586-.586.554.554,0,0,0-.586.586Zm-1-8.205a1.735,1.735,0,0,1-3.282,0H3.086A.554.554,0,0,1,2.5,4.258a.554.554,0,0,1,.586-.586H7.013a1.735,1.735,0,0,1,3.282,0h3.927a.554.554,0,0,1,.586.586.554.554,0,0,1-.586.586ZM8.068,4.258a.586.586,0,1,0,1.172,0,.586.586,0,1,0-1.172,0ZM14.222,9.24H7.071a1.735,1.735,0,0,1-3.282,0h-.7a.586.586,0,0,1,0-1.172h.7a1.735,1.735,0,0,1,3.282,0h7.15a.586.586,0,0,1,0,1.172ZM4.844,8.654a.554.554,0,0,0,.586.586.586.586,0,0,0,0-1.172.554.554,0,0,0-.586.586Z" transform="translate(-2.5 -2.5)" fill="#0d97df"/>
</svg>
