<svg xmlns="http://www.w3.org/2000/svg" width="12" height="11.996" viewBox="0 0 12 11.996">
  <path id="Path_154" data-name="Path 154" d="M619.267,429.146H619.1c-.057-.024-.115-.047-.172-.072q-1.747-.776-3.492-1.555a.24.24,0,0,0-.219,0q-1.83.817-3.663,1.627h-.188a.561.561,0,0,1-.328-.328v-9.632a.593.593,0,0,1,.32-.319q1.851-.817,3.7-1.644a.611.611,0,0,1,.538,0c1.149.516,2.3,1.024,3.45,1.539a.258.258,0,0,0,.249,0q1.541-.777,3.086-1.546a.429.429,0,0,1,.658.409q0,4.669,0,9.338a.453.453,0,0,1-.267.443Zm-.514-1.09v-.106q0-4.141,0-8.283a.136.136,0,0,0-.1-.145q-1.4-.617-2.79-1.238c-.033-.015-.068-.026-.113-.044v.1c0,1.295,0,4.193,0,4.193s0,2.624,0,4.09a.135.135,0,0,0,.1.144q1.1.486,2.2.977Zm-3.854-9.819-.142.06q-1.374.61-2.748,1.219a.159.159,0,0,0-.112.173q0,4.113,0,8.225v.136c.051-.02.084-.031.115-.045q1.385-.615,2.769-1.228a.168.168,0,0,0,.118-.182q0-4.107,0-8.214Zm7.283.037c-.054.025-.092.042-.13.061q-1.162.58-2.325,1.159a.177.177,0,0,0-.116.185q0,4.1,0,8.2v.137c.053-.024.088-.039.122-.057.778-.389,1.555-.779,2.335-1.164a.177.177,0,0,0,.112-.188q0-4.1,0-8.191Z" transform="translate(-611.041 -417.15)" fill="#0d97df"/>
</svg>
