<svg xmlns="http://www.w3.org/2000/svg" width="30.524" height="20" viewBox="0 0 30.524 20">
  <g id="Group_234" data-name="Group 234" transform="translate(-629 -349.003)">
    <path id="Path_146" data-name="Path 146" d="M659.508,371.733a4.574,4.574,0,0,0-2.607-4.156,4.364,4.364,0,0,0-4.869.434c-.347.258-.4.228-.663-.1-.084-.109-.174-.213-.267-.317a6.155,6.155,0,0,0-8.686-.451c-.125.116-.286.273-.4.259-.095-.01-.232-.191-.339-.341a6.656,6.656,0,0,0-6.38-2.967,6.731,6.731,0,0,0-5.674,4.072,8.618,8.618,0,0,0-.613,3.812c0,.2,0,.392-.007.587a.965.965,0,0,0,.19.716.936.936,0,0,0,.713.206c3.643-.019,7.345-.018,10.927-.015l16.958.011c.847,0,1.272,0,1.518-.255S659.537,372.529,659.508,371.733Zm-13.175.609c-.978,0-1.983,0-2.976.019-.184,0-.293-.02-.345-.072a.488.488,0,0,1-.065-.34,8.211,8.211,0,0,0-.36-3.1c-.068-.192,0-.3.184-.5a5.052,5.052,0,0,1,5.683-1.279,5.171,5.171,0,0,1,3.147,4.992c-.016.3-.068.3-.4.3h-3.732v-.011Zm11.674,0-3.117-.008c-.6,0-1.2,0-1.794.008-.154,0-.235-.015-.273-.052a.383.383,0,0,1-.055-.235,6.58,6.58,0,0,0-.443-2.534c-.1-.227-.027-.3.2-.5a3.585,3.585,0,0,1,2.284-.825,3.342,3.342,0,0,1,.345.017,3.556,3.556,0,0,1,3.19,3.89C658.32,372.325,658.276,372.342,658.007,372.342Zm-16.353-.158c-.155.161-.58.161-1.352.161h-4.348c-.553,0-1.106,0-1.659-.007-1.183-.006-2.4-.013-3.607.013-.477.015-.529-.085-.549-.594a5.945,5.945,0,0,1,1.805-4.94,5.806,5.806,0,0,1,9.824,4.026C641.794,371.553,641.811,372.022,641.655,372.184Z" transform="translate(0 -4.484)" fill="#0d97df"/>
    <path id="Path_147" data-name="Path 147" d="M636.943,358.409l.144,0,.144,0a4.753,4.753,0,1,0-.288,0Zm-3.543-4.641a3.573,3.573,0,0,1,3.563-3.584h.01a3.574,3.574,0,0,1,3.573,3.556,3.631,3.631,0,0,1-3.567,3.59h-.007A3.579,3.579,0,0,1,633.4,353.768Z" transform="translate(-1.002 0)" fill="#0d97df"/>
    <path id="Path_148" data-name="Path 148" d="M648.384,357.346a3.9,3.9,0,0,0,3.892,3.861h.034a3.847,3.847,0,0,0,2.8-1.143,3.947,3.947,0,0,0-2.757-6.752h-.09a3.91,3.91,0,0,0-3.88,3.929l0,.065Zm1.081-.085a2.805,2.805,0,0,1,2.8-2.791h.011a2.8,2.8,0,0,1-.01,5.6h-.01a2.8,2.8,0,0,1-2.792-2.812Z" transform="translate(-5.779 -1.285)" fill="#0d97df"/>
    <path id="Path_149" data-name="Path 149" d="M664.408,364.033a3.222,3.222,0,0,0,3.181-3.148c0-.054,0-.108,0-.161a3.107,3.107,0,0,0-3.1-3.069h-.035l0,.175h0l-.021-.176a3.252,3.252,0,0,0-2.266.9,3.169,3.169,0,0,0-.968,2.244A3.3,3.3,0,0,0,664.408,364.033Zm-2.051-3.223a2.082,2.082,0,0,1,2.009-2.079,2.138,2.138,0,0,1,2.141,2.05,2.082,2.082,0,0,1-2.071,2.094h-.117a2.012,2.012,0,0,1-1.962-2.065Z" transform="translate(-9.601 -2.579)" fill="#0d97df"/>
  </g>
</svg>
