<svg xmlns="http://www.w3.org/2000/svg" width="23.166" height="24" viewBox="0 0 23.166 24">
  <g id="Group_235" data-name="Group 235" transform="translate(-700.13 -373.405)">
    <path id="Path_150" data-name="Path 150" d="M723.12,388.032l-.114-.108-.007.029a.622.622,0,0,0-.28-.071.556.556,0,0,0-.228.053,1.425,1.425,0,0,0,.052-.356,1.327,1.327,0,0,0-1.266-1.35,1.306,1.306,0,0,0-.9.385,1.522,1.522,0,0,0-.4,1.136,1.473,1.473,0,0,0,.135.6c-.043,0-.086.007-.13.01-.28-3.016-2.928-5.525-5.353-6.416a5.1,5.1,0,1,0-7.432.1q-.1.04-.194.081l-2.935-1.248a.564.564,0,0,0-.776.6l.451,2.966a8.466,8.466,0,0,0-1.174,1.749l-2.051.667a.561.561,0,0,0-.391.536v3.245a.57.57,0,0,0,.47.555l1.9.313a9.788,9.788,0,0,0,2.021,2.642l.58,2.807a.569.569,0,0,0,.552.448h2.588a.557.557,0,0,0,.557-.5l.08-.752a10.271,10.271,0,0,0,4.023.081l.212.764a.568.568,0,0,0,.542.412h2.588a.561.561,0,0,0,.552-.458l.519-2.745a7.766,7.766,0,0,0,2.66-4.717,3.373,3.373,0,0,0,1.245-.267,2.713,2.713,0,0,0,.857.113,1.689,1.689,0,0,0,1.07-.5A.565.565,0,0,0,723.12,388.032Zm-2.018-.312a.463.463,0,0,1,.075-.319.181.181,0,0,1,.082-.046.2.2,0,0,1,.157.2.572.572,0,0,1-.232.366l-.014.012A.332.332,0,0,1,721.1,387.72Zm-16.2-3.19-.341-2.226,2.229.946a.569.569,0,0,0,.451,0,8.409,8.409,0,0,1,1.928-.6,10.336,10.336,0,0,1,3.461-.022c.286.043.576.1.862.159l.1.023c2.459.557,5.243,3.236,5.289,5.989.043,2.694-2.407,4.631-2.431,4.65a.58.58,0,0,0-.212.341l-.469,2.49h-1.691l-.245-.882a.564.564,0,0,0-.7-.387,9.55,9.55,0,0,1-4.591-.1.546.546,0,0,0-.472.072.556.556,0,0,0-.247.41l-.094.886h-1.62l-.529-2.547a.568.568,0,0,0-.192-.318,8.929,8.929,0,0,1-2.01-2.653.555.555,0,0,0-.417-.318l-1.706-.281v-2.357l1.919-.623a.56.56,0,0,0,.362-.377,7.059,7.059,0,0,1,1.229-1.82A.569.569,0,0,0,704.9,384.53Zm8.45-2.926a11.689,11.689,0,0,0-4.91.045,3.971,3.971,0,0,1,4.821-6.312,3.971,3.971,0,0,1,.089,6.267Z" transform="translate(0 0)" fill="#0d97df"/>
    <path id="Path_151" data-name="Path 151" d="M708.121,392.332a.873.873,0,1,0-.873-.874A.875.875,0,0,0,708.121,392.332Z" transform="translate(-1.903 -4.594)" fill="#0d97df"/>
    <path id="Path_152" data-name="Path 152" d="M714.255,377.3h.027a.5.5,0,0,1,.405.158.715.715,0,0,1,.189.434l.007.085h1.031l-.006-.1a1.673,1.673,0,0,0-.492-1.088,1.617,1.617,0,0,0-1.166-.417h-.034a1.821,1.821,0,0,0-.775.173,1.315,1.315,0,0,0-.56.508,1.467,1.467,0,0,0-.195.76,3.247,3.247,0,0,0,.139.859h-.539v.8h.768c0,.034.006.069.007.1a1.507,1.507,0,0,1-.136.664,1.923,1.923,0,0,1-.442.554l-.044.037.147.576H715.9v-.9h-2.148a1.5,1.5,0,0,0,.348-.941c0-.023,0-.056-.005-.1h.985v-.8h-1.172l-.021-.067c-.055-.174-.094-.31-.117-.407a1.249,1.249,0,0,1-.033-.292.623.623,0,0,1,.149-.45A.505.505,0,0,1,714.255,377.3Z" transform="translate(-3.251 -0.795)" fill="#0d97df"/>
  </g>
</svg>
