<svg xmlns="http://www.w3.org/2000/svg" width="23.537" height="24" viewBox="0 0 23.537 24">
  <g id="Group_233" data-name="Group 233" transform="translate(-667.098 -368.385)">
    <path id="Path_142" data-name="Path 142" d="M680.184,386.85a.661.661,0,0,0,.56.31h0a.655.655,0,0,0,.56-.319l5.044-8.424a6.635,6.635,0,1,0-11.343.091Zm4.957-8.969-4.409,7.366-4.611-7.43a5.33,5.33,0,0,1,4.517-8.136,5.376,5.376,0,0,1,1.225.142,5.328,5.328,0,0,1,3.356,7.922l-.082.136Z" transform="translate(-1.777)" fill="#0d97df"/>
    <path id="Path_143" data-name="Path 143" d="M681.955,373.462a2.861,2.861,0,1,0,2.861,2.861A2.864,2.864,0,0,0,681.955,373.462Zm1.724,2.861a1.73,1.73,0,0,1-1.724,1.726h-.072a1.728,1.728,0,0,1,.065-3.455h0A1.731,1.731,0,0,1,683.678,376.323Z" transform="translate(-3.083 -1.305)" fill="#0d97df"/>
    <path id="Path_144" data-name="Path 144" d="M683.247,388.565l-.049-.007a.623.623,0,0,0-.454.135.619.619,0,0,0,.321,1.1c3.671.555,6.334,1.866,6.334,3.12,0,1.615-4.5,3.421-10.531,3.421s-10.532-1.806-10.532-3.421c0-1.245,2.642-2.553,6.293-3.113a.619.619,0,0,0,.261-1.114.62.62,0,0,0-.459-.108c-4.523.694-7.334,2.355-7.334,4.335,0,3.026,6.065,4.659,11.77,4.659a25.554,25.554,0,0,0,7.984-1.172c2.476-.86,3.784-2.066,3.783-3.486C690.635,390.919,687.8,389.253,683.247,388.565Z" transform="translate(0 -5.183)" fill="#0d97df"/>
    <path id="Path_145" data-name="Path 145" d="M679.024,393.089a.619.619,0,1,0-.271-1.208c-1.676.373-2.6,1.074-2.6,1.973,0,1.526,2.614,2.221,5.041,2.221,2.5,0,5.041-.762,5.049-2.221,0-.9-.923-1.6-2.6-1.973a.619.619,0,1,0-.271,1.208c1.294.288,1.618.7,1.628.764,0,.195-1.226.984-3.8.984s-3.8-.789-3.8-.982C677.405,393.787,677.731,393.376,679.024,393.089Z" transform="translate(-2.327 -6.034)" fill="#0d97df"/>
  </g>
</svg>
