<svg xmlns="http://www.w3.org/2000/svg" width="17.967" height="16" viewBox="0 0 17.967 16">
  <path id="Path_153" data-name="Path 153" d="M760.7,380.722a4.854,4.854,0,0,0-3.573-1.572h-.059a4.556,4.556,0,0,0-2.817.979,5.78,5.78,0,0,0-1.1,1.14,5.79,5.79,0,0,0-1.1-1.14,4.554,4.554,0,0,0-2.816-.979h-.056a4.858,4.858,0,0,0-3.575,1.572,5.615,5.615,0,0,0-1.43,3.85,6.7,6.7,0,0,0,1.782,4.382,37.946,37.946,0,0,0,4.446,4.171l.388.332c.5.427,1.069.912,1.643,1.413a1.1,1.1,0,0,0,.691.274l0,.007h.032a1.1,1.1,0,0,0,.723-.274c.709-.62,1.392-1.2,2-1.718l.038-.032a37.939,37.939,0,0,0,4.441-4.168,6.7,6.7,0,0,0,1.782-4.386A5.618,5.618,0,0,0,760.7,380.722Zm.286,3.848a5.536,5.536,0,0,1-1.521,3.647,37.164,37.164,0,0,1-4.3,4.031c-.6.509-1.295,1.1-2.017,1.731-.751-.656-1.468-1.268-2.011-1.73a37.25,37.25,0,0,1-4.3-4.03,5.54,5.54,0,0,1-1.516-3.649,4.477,4.477,0,0,1,1.126-3.071,3.725,3.725,0,0,1,2.739-1.2h.041a3.44,3.44,0,0,1,2.125.738,5,5,0,0,1,1.2,1.384.711.711,0,0,0,1.22,0,5,5,0,0,1,1.2-1.381,3.433,3.433,0,0,1,2.126-.74h.04a3.724,3.724,0,0,1,2.738,1.2A4.477,4.477,0,0,1,760.983,384.57Z" transform="translate(-744.162 -379.15)" fill="#0d97df"/>
</svg>
